name C:\Users\r0593348\3dpredictsim\Results\MidTarsalJoint\Fal_s1_bCst_PF_Natali2010_ls150_MT_k150_d020_MTP_T5_ig21.mot
datacolumns 128
datarows 4
range 0.57101977 0.60528095
endheader
time	pelvis_tilt	pelvis_list	pelvis_rotation	pelvis_tx	pelvis_ty	pelvis_tz	hip_flexion_l	hip_adduction_l	hip_rotation_l	hip_flexion_r	hip_adduction_r	hip_rotation_r	knee_angle_l	knee_angle_r	ankle_angle_l	ankle_angle_r	subtalar_angle_l	subtalar_angle_r	mtj_angle_l	mtj_angle_r	mtp_angle_l	mtp_angle_r	lumbar_extension	lumbar_bending	lumbar_rotation	arm_flex_l	arm_add_l	arm_rot_l	arm_flex_r	arm_add_r	arm_rot_r	elbow_flex_l	elbow_flex_r	pro_sup_l	pro_sup_r	glut_med1_l/activation	glut_med2_l/activation	glut_med3_l/activation	glut_min1_l/activation	glut_min2_l/activation	glut_min3_l/activation	semimem_l/activation	semiten_l/activation	bifemlh_l/activation	bifemsh_l/activation	sar_l/activation	add_long_l/activation	add_brev_l/activation	add_mag1_l/activation	add_mag2_l/activation	add_mag3_l/activation	tfl_l/activation	pect_l/activation	grac_l/activation	glut_max1_l/activation	glut_max2_l/activation	glut_max3_l/activation	iliacus_l/activation	psoas_l/activation	quad_fem_l/activation	gem_l/activation	peri_l/activation	rect_fem_l/activation	vas_med_l/activation	vas_int_l/activation	vas_lat_l/activation	med_gas_l/activation	lat_gas_l/activation	soleus_l/activation	tib_post_l/activation	flex_dig_l/activation	flex_hal_l/activation	tib_ant_l/activation	per_brev_l/activation	per_long_l/activation	per_tert_l/activation	ext_dig_l/activation	ext_hal_l/activation	ercspn_l/activation	intobl_l/activation	extobl_l/activation	glut_med1_r/activation	glut_med2_r/activation	glut_med3_r/activation	glut_min1_r/activation	glut_min2_r/activation	glut_min3_r/activation	semimem_r/activation	semiten_r/activation	bifemlh_r/activation	bifemsh_r/activation	sar_r/activation	add_long_r/activation	add_brev_r/activation	add_mag1_r/activation	add_mag2_r/activation	add_mag3_r/activation	tfl_r/activation	pect_r/activation	grac_r/activation	glut_max1_r/activation	glut_max2_r/activation	glut_max3_r/activation	iliacus_r/activation	psoas_r/activation	quad_fem_r/activation	gem_r/activation	peri_r/activation	rect_fem_r/activation	vas_med_r/activation	vas_int_r/activation	vas_lat_r/activation	med_gas_r/activation	lat_gas_r/activation	soleus_r/activation	tib_post_r/activation	flex_dig_r/activation	flex_hal_r/activation	tib_ant_r/activation	per_brev_r/activation	per_long_r/activation	per_tert_r/activation	ext_dig_r/activation	ext_hal_r/activation	ercspn_r/activation	intobl_r/activation	extobl_r/activation	
          0.57101977	         -2.93001055	          2.30672644	         -5.58928173	          0.71377471	          0.91821027	          0.00167952	         29.43394524	          3.51375508	         -2.19874332	        -16.48533998	         -1.33978103	          6.34048762	        -10.88827721	         -8.60791872	          5.27808344	         -3.52610977	         -5.31288478	          8.78377878	         -0.05488513	          8.89406260	         -0.82528509	          4.32734661	         -1.91004200	         -0.37151014	          2.11736151	         -4.54507142	        -13.46551626	          7.72817234	          5.36644543	        -13.45261290	         17.21567947	         15.61439589	         33.54964021	         86.51662706	         86.51662706	          0.05951630	          0.05951651	          0.05000053	          0.05951703	          0.05951692	          0.05011008	          0.15347922	          0.06562864	          0.22412610	          0.05009842	          0.05000112	          0.14081287	          0.27436756	          0.12171949	          0.15459028	          0.10624382	          0.05000033	          0.08136020	          0.12187202	          0.05000212	          0.07872556	          0.15488238	          0.05000384	          0.05000044	          0.15477253	          0.27017049	          0.13260745	          0.05000067	          0.11143883	          0.10980440	          0.09942485	          0.05325257	          0.06149606	          0.05662164	          0.05000007	          0.05000100	          0.05000058	          0.49990947	          0.25029468	          0.17009740	          0.21936078	          0.44719566	          0.20148106	          0.05790255	          0.11887796	          0.10522208	          0.24150555	          0.10600094	          0.08433516	          0.27234382	          0.20041039	          0.11948343	          0.05000245	          0.05000067	          0.05000047	          0.05500204	          0.11943770	          0.05041455	          0.05000395	          0.05000193	          0.05000364	          0.05000122	          0.31494627	          0.07085715	          0.05000912	          0.05000987	          0.05000504	          0.05000324	          0.44915199	          0.64787458	          0.05000180	          0.05000186	          0.05219620	          0.27110602	          0.05000145	          0.05000136	          0.05000125	          0.30702854	          0.42116066	          0.36764213	          0.27177797	          0.25758406	          0.33961456	          0.05000011	          0.05948110	          0.12955915	          0.05000072	          0.05000018	          0.05000063	          0.05000006	          0.05000015	          0.05000043	
          0.58244016	         -2.92941926	          2.39255176	         -5.88934643	          0.73087419	          0.91712440	          0.00149081	         28.80684950	          3.85374243	         -1.96534075	        -16.47406375	         -1.65084252	          6.15167040	        -11.12291726	        -10.32451753	          4.57252195	         -3.95445092	         -5.67028068	          9.69138497	         -0.01323941	          7.94600042	         -0.83228231	          5.93040556	         -1.71340175	         -0.55737284	          2.18461070	         -5.42350345	        -13.46312983	          7.55582183	          5.10239784	        -13.45886733	         17.49979525	         15.18364907	         34.76468402	         86.51662706	         86.51662706	          0.05000004	          0.05000015	          0.09462502	          0.05000016	          0.05000018	          0.05000026	          0.12893750	          0.05513457	          0.18828756	          0.05000036	          0.05015046	          0.11829825	          0.26068330	          0.29660793	          0.19571187	          0.10931449	          0.05000173	          0.07082036	          0.12343657	          0.05002415	          0.09185550	          0.13011689	          0.05000048	          0.07084324	          0.44835927	          0.22696933	          0.11140316	          0.05956992	          0.12916882	          0.12911199	          0.11272805	          0.05000303	          0.06205997	          0.05000018	          0.05952001	          0.05004315	          0.05951939	          0.43461187	          0.25278513	          0.20410034	          0.18428453	          0.40552335	          0.16926369	          0.05000002	          0.09986894	          0.08839668	          0.20288807	          0.08905112	          0.07084994	          0.22879553	          0.16836429	          0.10037784	          0.05000937	          0.05000190	          0.05000206	          0.05000089	          0.10034053	          0.11569480	          0.05015303	          0.05952019	          0.05949415	          0.05951410	          0.26458577	          0.05954569	          0.05936365	          0.05001196	          0.05000774	          0.05001052	          0.37733183	          0.61705280	          0.05001899	          0.05953425	          0.06967810	          0.22775579	          0.09500742	          0.14230850	          0.13694920	          0.25793357	          0.35381582	          0.33826527	          0.24636002	          0.21639909	          0.28536268	          0.05000033	          0.05000036	          0.14512995	          0.05000065	          0.05000025	          0.05000119	          0.05251829	          0.06206305	          0.05951714	
          0.59386056	         -2.92500312	          2.48065839	         -6.15713337	          0.74829359	          0.91613999	          0.00131982	         28.07184344	          4.11077410	         -1.70787044	        -16.40601648	         -1.96234737	          5.95800080	        -11.67016839	        -12.12052051	          3.98248745	         -4.49459228	         -6.04577788	         10.55399538	         -0.24133652	          6.75277369	         -0.85381327	          7.76278521	         -1.49463770	         -0.75497558	          2.23975636	         -6.33645922	        -13.46636857	          7.43180930	          4.75447276	        -13.46067563	         17.70202711	         14.81880423	         35.96114763	         86.51662706	         86.51662706	          0.22323440	          0.21270985	          0.25731628	          0.31463243	          0.21368833	          0.18898160	          0.11115045	          0.06314765	          0.15817989	          0.07846893	          0.05000260	          0.09938208	          0.21899929	          0.24917948	          0.16441730	          0.11089622	          0.05000136	          0.05951596	          0.10370206	          0.05000258	          0.11292304	          0.10931148	          0.05628074	          0.05951539	          0.37666507	          0.19067643	          0.20128594	          0.05004453	          0.10851443	          0.10846670	          0.09470257	          0.05000126	          0.05213675	          0.05000180	          0.05000267	          0.05000124	          0.05000293	          0.51415177	          0.31317765	          0.17146552	          0.31005218	          0.48291891	          0.14220022	          0.05512651	          0.12964781	          0.07426174	          0.30130114	          0.07481170	          0.05952127	          0.30666370	          0.14144289	          0.08432738	          0.05000517	          0.05000067	          0.05000060	          0.05000066	          0.08430222	          0.09719495	          0.05000166	          0.05000345	          0.05000330	          0.05000243	          0.28142600	          0.05002680	          0.05000236	          0.05002691	          0.05001464	          0.05000604	          0.31841279	          0.59309562	          0.05000170	          0.05001643	          0.05853706	          0.19133696	          0.10671171	          0.11955604	          0.11505269	          0.21668903	          0.29723942	          0.28417546	          0.20696737	          0.18179698	          0.23973320	          0.05000006	          0.09510099	          0.16385626	          0.05000043	          0.05000011	          0.05000042	          0.05000010	          0.05213895	          0.05000026	
          0.60528095	         -2.91910875	          2.56082084	         -6.38591230	          0.76583205	          0.91531112	          0.00112536	         27.29162158	          4.34450971	         -1.45297017	        -16.24465523	         -2.26227872	          5.77638091	        -12.18126541	        -14.03229220	          3.39333592	         -5.15527580	         -6.42189233	         11.37385678	         -0.26724621	          5.33608922	         -0.79628009	          9.76574925	         -1.27609926	         -0.95373265	          2.28697797	         -7.23809048	        -13.46832628	          7.35084798	          4.35469309	        -13.46683072	         17.84843479	         14.50203316	         37.11930576	         86.51662706	         86.51662706	          0.31407974	          0.30578143	          0.33138302	          0.26432206	          0.17952266	          0.17913323	          0.09337744	          0.07032656	          0.13288647	          0.06592215	          0.05000269	          0.08349063	          0.18398062	          0.20933533	          0.13812820	          0.14642150	          0.05000122	          0.05000327	          0.08712095	          0.19498207	          0.17100684	          0.14072177	          0.05000021	          0.05000026	          0.31643510	          0.16018678	          0.16910031	          0.05000022	          0.10151812	          0.12400768	          0.08361347	          0.05000009	          0.05000017	          0.05000002	          0.05000006	          0.05000034	          0.05000032	          0.57201542	          0.29928238	          0.17261825	          0.53657755	          0.52048263	          0.25339878	          0.07762683	          0.10891668	          0.06238703	          0.27674328	          0.06284915	          0.05000403	          0.25764330	          0.11882599	          0.07084334	          0.05000623	          0.05000064	          0.05000058	          0.05000071	          0.07082903	          0.08339184	          0.05000118	          0.05000163	          0.05000388	          0.05000150	          0.23642695	          0.05001628	          0.05000404	          0.05001290	          0.05000648	          0.05000327	          0.26749783	          0.55888738	          0.05000137	          0.05000498	          0.05000097	          0.16074153	          0.08966496	          0.12900726	          0.13663038	          0.18203963	          0.24970974	          0.23873473	          0.17387266	          0.15272734	          0.20139928	          0.05000035	          0.09455155	          0.16945840	          0.05000061	          0.07975290	          0.05000097	          0.06830584	          0.05000004	          0.05000012	
